<svg version="1.2" xmlns="http://www.w3.org/2000/svg" viewBox="0 0 882 148" width="882" height="148">
	<style>
		.s0 { fill: #ffffff } 
	</style>
	<path id="Kurze&amp;Pos" class="s0" aria-label="Kurze&amp;Pos"  d="m92.9 67.9l33.2 59.1h-32.7l-21.2-40.9-8.6 5.1v35.8h-29v-107.1h29v46.5q1.9-3.5 4.2-7 2.4-3.5 4.7-6.7l22.5-32.8h31.6zm95.1-23.9h28.7v83h-21.6l-3.6-10.3h-1.7q-2.6 4.2-6.5 6.8-3.9 2.6-8.7 3.8-4.7 1.2-9.9 1.2-8.1 0-14.7-3.2-6.5-3.1-10.4-9.8-3.8-6.8-3.8-17.4v-54.1h28.6v45.4q0 8 2.3 12.3 2.4 4.2 7.6 4.2 5.5 0 8.4-3 3-2.9 4.2-8.6 1.1-5.7 1.1-13.9zm99-1.5q2.4 0 5 0.4 2.5 0.3 3.8 0.5l-2.6 27q-1.4-0.4-3.6-0.6-2.2-0.3-6.1-0.3-2.7 0-5.8 0.5-3.1 0.6-5.9 2.2-2.7 1.7-4.5 5-1.7 3.3-1.7 9v40.8h-28.6v-83h21.3l4.4 13.2h1.4q2.3-4.1 5.8-7.4 3.6-3.3 8-5.3 4.5-2 9.1-2zm82.4 62.6v21.9h-68.7v-16.4l34.3-44.7h-32.4v-21.9h65.1v17.7l-32.8 43.4zm50.9-62.6q12.1 0 20.9 4.3 8.8 4.1 13.5 12.6 4.8 8.4 4.8 21v12.8h-51.2q0.4 6.5 4.8 10.7 4.6 4.2 13.4 4.2 7.7 0 14.2-1.6 6.5-1.5 13.4-4.7v20.5q-6 3.2-13.1 4.7-7.1 1.4-18 1.4-12.5 0-22.4-4.4-9.9-4.5-15.6-13.9-5.6-9.4-5.6-24.1 0-14.9 5.1-24.5 5.1-9.7 14.3-14.3 9.3-4.7 21.5-4.7zm1 19.5q-5 0-8.5 3.2-3.3 3.2-3.9 10h24.6q-0.1-3.7-1.5-6.7-1.4-3-4.1-4.8-2.6-1.7-6.6-1.7zm94.3-43.5q10.1 0 17.4 3.1 7.3 3 11.3 8.7 3.9 5.6 3.9 13.7 0 9.3-5.4 16.1-5.3 6.7-13.9 11.9l14.6 13.9q2.5-4 4.5-8.8 2-4.9 3.1-10.3h29.7q-2.3 10.9-7.2 21-4.8 10-10.3 16.7l23.4 22.5h-37.1l-7.2-7.5q-4 2.5-8.1 4.5-3.9 2.1-9.6 3.2-5.6 1.2-14.5 1.2-12.6 0-21.3-4.2-8.6-4.2-13.1-11.2-4.5-7.1-4.5-15.8 0-6.4 2.3-11.8 2.4-5.5 6.7-9.9 4.5-4.4 11-7.7-3-3.4-5.2-7.1-2.2-3.6-3.3-7.7-1.1-4.2-1.1-9 0-7.4 3.8-13.1 3.9-5.8 11.4-9.1 7.6-3.3 18.7-3.3zm9.4 83.6l-18.1-18.5q-2.1 1.5-3.5 3.4-1.3 1.8-2 3.8-0.5 2.1-0.5 4.4 0 4.6 3.3 7.5 3.3 2.9 8.7 2.9 4.1 0 7.3-1.1 3.1-1.1 4.8-2.4zm-9.9-64.9q-3 0-5.4 1.9-2.3 1.7-2.3 5.8 0 3.2 2 6.2 1.9 2.8 4.5 5.2 4.2-2.4 6.4-5.7 2.2-3.3 2.2-6.6 0-3.6-2.2-5.2-2-1.6-5.2-1.6zm82.5-17.3h37.1q20.4 0 30.5 8.8 10.1 8.9 10.1 25.2 0 7.4-2.1 14.1-2 6.7-6.8 12-4.7 5.3-12.5 8.4-7.8 3-19.2 3h-8.1v35.6h-29zm36.4 23.3h-7.4v24.6h5.7q3.7 0 6.9-1.2 3.3-1.3 5.2-4.2 1.9-2.9 1.9-7.8 0-5-3-8.2-3-3.2-9.3-3.2zm135.2 42.1q0 10.4-2.9 18.4-2.8 8.1-8.2 13.6-5.4 5.5-13.1 8.3-7.7 2.8-17.4 2.8-9 0-16.6-2.8-7.4-2.8-13-8.3-5.6-5.5-8.6-13.6-3-8-3-18.4 0-13.8 4.9-23.3 5.1-9.6 14.4-14.5 9.4-5 22.3-5 12 0 21.3 5 9.3 4.9 14.6 14.5 5.3 9.5 5.3 23.3zm-53.8 0q0 7.1 1.3 12 1.2 4.8 3.9 7.4 2.8 2.5 7.3 2.5 4.5 0 7.1-2.5 2.6-2.6 3.8-7.4 1.3-4.9 1.3-12 0-7.1-1.3-11.9-1.2-4.8-3.9-7.2-2.6-2.4-7.2-2.4-6.5 0-9.4 5.4-2.9 5.4-2.9 16.1zm132.2 16.1q0 8-3.5 14-3.5 6.1-11.3 9.6-7.7 3.4-20.3 3.4-8.8 0-15.9-1-6.9-0.9-14.1-3.6v-22.9q7.8 3.5 16 5.2 8.1 1.5 12.8 1.5 4.8 0 7-1 2.3-1.1 2.3-3.2 0-1.9-1.5-3.1-1.5-1.3-5.4-3-3.8-1.7-10.8-4.6-6.8-2.8-11.5-6.2-4.5-3.4-6.8-8.1-2.2-4.6-2.2-11.5 0-12.1 9.3-18.3 9.4-6.1 24.9-6.1 8.2 0 15.4 1.8 7.3 1.8 15 5.2l-7.8 18.5q-6.1-2.8-12.4-4.5-6.3-1.7-10.1-1.7-3.4 0-5.2 0.9-1.8 0.9-1.8 2.6 0 1.5 1.2 2.7 1.3 1.1 4.9 2.7 3.6 1.5 10.5 4.3 7.3 2.9 12 6.3 4.7 3.3 7 8.1 2.3 4.7 2.3 12z"/>
</svg>